<svg width="48" height="45" viewBox="0 0 48 45" fill="none" xmlns="http://www.w3.org/2000/svg">
<path fill-rule="evenodd" clip-rule="evenodd" d="M15.1875 7.5C13.5652 7.5 12.25 8.75919 12.25 10.3125V34.6875C12.25 36.2408 13.5652 37.5 15.1875 37.5H32.8125C34.4348 37.5 35.75 36.2408 35.75 34.6875V10.3125C35.75 8.75919 34.4348 7.5 32.8125 7.5H15.1875ZM28.6091 15.6629C28.9914 15.2968 28.9914 14.7032 28.6091 14.3371C28.2267 13.971 27.6067 13.971 27.2242 14.3371L19.391 21.837C19.0086 22.2032 19.0086 22.7968 19.391 23.163C19.7733 23.529 20.3933 23.529 20.7758 23.163L28.6091 15.6629ZM23.0208 15.9375C23.0208 16.973 22.1441 17.8125 21.0625 17.8125C19.981 17.8125 19.1042 16.973 19.1042 15.9375C19.1042 14.902 19.981 14.0625 21.0625 14.0625C22.1441 14.0625 23.0208 14.902 23.0208 15.9375ZM26.9375 23.4375C28.0191 23.4375 28.8958 22.5981 28.8958 21.5625C28.8958 20.5269 28.0191 19.6875 26.9375 19.6875C25.8559 19.6875 24.9792 20.5269 24.9792 21.5625C24.9792 22.5981 25.8559 23.4375 26.9375 23.4375ZM17.1458 28.125C17.1458 27.6073 17.5842 27.1875 18.125 27.1875H29.875C30.4157 27.1875 30.8542 27.6073 30.8542 28.125C30.8542 28.6427 30.4157 29.0625 29.875 29.0625H18.125C17.5842 29.0625 17.1458 28.6427 17.1458 28.125ZM18.125 30.9375C17.5842 30.9375 17.1458 31.3573 17.1458 31.875C17.1458 32.3927 17.5842 32.8125 18.125 32.8125H29.875C30.4157 32.8125 30.8542 32.3927 30.8542 31.875C30.8542 31.3573 30.4157 30.9375 29.875 30.9375H18.125Z" fill="#00163A"/>
</svg>
