<svg width="45" height="45" viewBox="0 0 45 45" fill="none" xmlns="http://www.w3.org/2000/svg">
<path fill-rule="evenodd" clip-rule="evenodd" d="M9.375 12.1875C9.375 10.6342 10.6342 9.375 12.1875 9.375H32.8124C34.3659 9.375 35.6249 10.6342 35.6249 12.1875V32.8125C35.6249 34.3657 34.3659 35.625 32.8124 35.625H12.1875C10.6342 35.625 9.375 34.3657 9.375 32.8125V12.1875ZM12.1875 12.1875H16.875V15H12.1875V12.1875ZM16.875 18.125H12.1875V20.9376H16.875V18.125ZM12.1875 24.0624H16.875V26.8749H12.1875V24.0624ZM16.875 30H12.1875V32.8125H16.875V30ZM20.1564 12.1875H24.8439V15H20.1564V12.1875ZM24.8437 18.125H20.1562V20.9376H24.8437V18.125ZM20.1562 24.0624H24.8437V26.8749H20.1562V24.0624ZM24.8437 30H20.1562V32.8125H24.8437V30ZM28.1249 12.1875H32.8124V15H28.1249V12.1875ZM32.8124 18.125H28.1249V20.9376H32.8124V18.125ZM28.1249 24.0624H32.8124V26.8749H28.1249V24.0624ZM32.8124 30H28.1249V32.8125H32.8124V30Z" fill="#00163A"/>
</svg>
