<svg width="46" height="45" viewBox="0 0 46 45" fill="none" xmlns="http://www.w3.org/2000/svg">
<path d="M24.0107 13.4349C24.9486 13.1314 25.7016 12.4171 26.0577 11.5042L33.9953 19.4419C33.0824 19.7979 32.368 20.5509 32.0646 21.4886L24.0107 13.4349Z" fill="#fff"/>
<path d="M32.0654 23.5114L24.0117 31.5651C24.9494 31.8686 25.7024 32.583 26.0585 33.4958L33.9961 25.5581C33.0832 25.2021 32.3688 24.4493 32.0654 23.5114Z" fill="#fff"/>
<path d="M21.9883 31.5651L13.9344 23.5112C13.631 24.4489 12.9168 25.2021 12.0039 25.5581L19.9414 33.4956C20.2975 32.5826 21.0505 31.8685 21.9883 31.5651Z" fill="#fff"/>
<path d="M21.9883 13.435L13.9344 21.489C13.631 20.5511 12.9168 19.7981 12.0039 19.4421L19.9414 11.5045C20.2975 12.4173 21.0505 13.1316 21.9883 13.435Z" fill="#fff"/>
<path fill-rule="evenodd" clip-rule="evenodd" d="M23 8.4375C21.9644 8.4375 21.125 9.27697 21.125 10.3125C21.125 11.348 21.9644 12.1875 23 12.1875C24.0356 12.1875 24.875 11.348 24.875 10.3125C24.875 9.27697 24.0356 8.4375 23 8.4375ZM18.3125 10.3125C18.3125 7.72367 20.4112 5.625 23 5.625C25.5888 5.625 27.6875 7.72367 27.6875 10.3125C27.6875 12.9013 25.5888 15 23 15C20.4112 15 18.3125 12.9013 18.3125 10.3125Z" fill="#fff"/>
<path d="M23 39.375C25.5888 39.375 27.6875 37.2763 27.6875 34.6875C27.6875 32.0987 25.5888 30 23 30C20.4112 30 18.3125 32.0987 18.3125 34.6875C18.3125 37.2763 20.4112 39.375 23 39.375Z" fill="#fff"/>
<path d="M10.8125 27.1875C13.4013 27.1875 15.5 25.0888 15.5 22.5C15.5 19.9112 13.4013 17.8125 10.8125 17.8125C8.22367 17.8125 6.125 19.9112 6.125 22.5C6.125 25.0888 8.22367 27.1875 10.8125 27.1875Z" fill="#fff"/>
<path d="M35.1875 27.1875C37.7763 27.1875 39.875 25.0888 39.875 22.5C39.875 19.9112 37.7763 17.8125 35.1875 17.8125C32.5987 17.8125 30.5 19.9112 30.5 22.5C30.5 25.0888 32.5987 27.1875 35.1875 27.1875Z" fill="#fff"/>
</svg>
