<svg width="18.000000" height="18.000000" viewBox="0 0 18 18" fill="none" xmlns="http://www.w3.org/2000/svg" xmlns:xlink="http://www.w3.org/1999/xlink">
	<desc>
			Created with Pixso.
	</desc>
	<defs>
		<clipPath id="clip309_2783">
			<rect id="search" rx="0.000000" width="17.000000" height="17.000000" transform="translate(0.500000 0.500000)" fill="white" fill-opacity="0"/>
		</clipPath>
	</defs>
	<rect id="search" rx="0.000000" width="17.000000" height="17.000000" transform="translate(0.500000 0.500000)" fill="#FFFFFF" fill-opacity="0"/>
	<g clip-path="url(#clip309_2783)">
		<path id="Vector" d="M7.87 4.12C5.8 4.12 4.12 5.8 4.12 7.87C4.12 9.94 5.8 11.62 7.87 11.62C9.94 11.62 11.62 9.94 11.62 7.87C11.62 5.8 9.94 4.12 7.87 4.12ZM3 7.87C3 5.18 5.18 3 7.87 3C10.56 3 12.75 5.18 12.75 7.87C12.75 10.56 10.56 12.75 7.87 12.75C5.18 12.75 3 10.56 3 7.87Z" fill="#A0A5AD" fill-opacity="1.000000" fill-rule="evenodd"/>
		<path id="Vector" d="M10.85 10.85C11.07 10.63 11.42 10.63 11.64 10.85L14.64 13.85C14.86 14.07 14.86 14.42 14.64 14.64C14.42 14.86 14.07 14.86 13.85 14.64L10.85 11.64C10.63 11.42 10.63 11.07 10.85 10.85Z" fill="#A0A5AD" fill-opacity="1.000000" fill-rule="evenodd"/>
	</g>
</svg>
