<svg xmlns="http://www.w3.org/2000/svg" fill="none" viewBox="0 0 115 42" height="42" width="115">
<path fill="url(#paint0_linear_1_149)" d="M21 14.4998C12.6274 10.1939 2 28.4998 1 25.9998V41.9998H114.5V25.9998C102 19.9998 100.5 1.49984 90.5 7.99978C80.5 14.4997 74.5 5.49984 60 1.49984C45.5 -2.50016 38.5 23.4997 21 14.4998Z"></path>
<path stroke="#28C165" d="M1 25.9998C2 28.4998 12.6274 10.1939 21 14.4998C38.5 23.4997 45.5 -2.50016 60 1.49984C74.5 5.49984 80.5 14.4997 90.5 7.99978C100.5 1.49984 102 19.9998 114.5 25.9998"></path>
<defs>
<linearGradient gradientUnits="userSpaceOnUse" y2="39.4998" x2="57.75" y1="-3.50024" x1="57.75" id="paint0_linear_1_149">
<stop stop-color="#5FDF92"></stop>
<stop stop-opacity="0.8" stop-color="#5FDF92" offset="0.0001"></stop>
<stop stop-opacity="0" stop-color="#C4C4C4" offset="1"></stop>
<stop stop-opacity="0" stop-color="#C4C4C4" offset="1"></stop>
<stop stop-opacity="0" stop-color="#5FDF92" offset="1"></stop>
</linearGradient>
</defs>
</svg>
