<svg width="74" height="74" viewBox="0 0 74 74" fill="none" xmlns="http://www.w3.org/2000/svg">
<path fill-rule="evenodd" clip-rule="evenodd" d="M21.5973 61.6528C21.7541 63.3893 23.2138 64.75 24.9912 64.75H55.1753C57.0574 64.75 58.583 63.2244 58.583 61.342V18.8245C58.583 17.0471 57.222 15.5875 55.4858 15.4306C55.4951 15.5328 55.4997 15.6364 55.4997 15.7411V58.259C55.4997 60.141 53.974 61.6667 52.0917 61.6667H21.908C21.8033 61.6667 21.6996 61.662 21.5973 61.6528Z" fill="#00163A" fill-opacity="0.32"/>
<path fill-rule="evenodd" clip-rule="evenodd" d="M15.4167 12.6579C15.4167 10.7758 16.9424 9.25 18.8245 9.25H49.0084C50.8907 9.25 52.4164 10.7758 52.4164 12.6579V55.1756C52.4164 57.0577 50.8907 58.5836 49.0084 58.5836H18.8245C16.9424 58.5836 15.4167 57.0577 15.4167 55.1756V12.6579ZM25.7138 45.0386C24.3883 44.0235 24.3883 42.0718 25.7138 41.0571C27.9877 39.3156 30.8313 38.2811 33.9164 38.2811C37.0016 38.2811 39.845 39.3156 42.119 41.0571C43.4445 42.0718 43.4445 44.0235 42.119 45.0386C39.845 46.7794 37.0016 47.8142 33.9164 47.8142C30.8313 47.8142 27.9877 46.7794 25.7138 45.0386ZM33.9099 35.8949C37.4144 35.8949 40.2557 32.3411 40.2557 27.9571C40.2557 23.5732 37.4144 20.0193 33.9099 20.0193C30.4054 20.0193 27.5643 23.5732 27.5643 27.9571C27.5643 32.3411 30.4054 35.8949 33.9099 35.8949Z" fill="#00163A" fill-opacity="0.32"/>
</svg>
