<svg width="45" height="46" viewBox="0 0 45 46" fill="none" xmlns="http://www.w3.org/2000/svg">
<path d="M18.9375 10.5756C19.4304 9.07974 20.8391 8 22.5 8C24.1609 8 25.5696 9.07974 26.0625 10.5756C29.4733 11.9778 31.875 15.3335 31.875 19.25V26.75L35.8995 30.7745C36.4901 31.3651 36.0718 32.375 35.2365 32.375H9.76324C8.92802 32.375 8.50973 31.3651 9.10031 30.7745L13.125 26.75V19.25C13.125 15.3335 15.5267 11.9778 18.9375 10.5756Z" fill="#3581FF"/>
<path d="M18.75 34.25C18.75 36.3211 20.4289 38 22.5 38C24.5711 38 26.25 36.3211 26.25 34.25H18.75Z" fill="#3581FF"/>
</svg>
