<svg width="45" height="46" viewBox="0 0 45 46" fill="none" xmlns="http://www.w3.org/2000/svg">
<path opacity="0.25" d="M28.9431 28.2091C27.8269 27.7393 26.4375 27.1539 26.4375 26.7031V23.7611C28.0642 22.5365 29.0625 20.5533 29.0625 18.5V14.5625C29.0625 10.9439 26.1186 8 22.5 8C18.8814 8 15.9375 10.9439 15.9375 14.5625V18.5C15.9375 20.5528 16.9357 22.5365 18.5625 23.7611V26.7031C18.5625 27.1263 17.1863 27.7151 16.0812 28.1876C13.4103 29.3294 9.375 31.0546 9.375 35.5625V36.2188H35.625V35.5625C35.625 31.0252 31.6042 29.3308 28.9431 28.2091Z" fill="black"/>
<path d="M15.9375 18.3125V14.5625C15.9375 10.9381 18.8756 8 22.5 8C26.1244 8 29.0625 10.9381 29.0625 14.5625V18.3125C29.0625 20.5426 27.9501 22.5129 26.25 23.6988V25.4806C26.25 26.2473 26.7169 26.9368 27.4286 27.2214L30.4024 28.4109C33.5567 29.6726 35.625 32.7277 35.625 36.125H9.375C9.375 32.7277 11.4434 29.6726 14.5977 28.4109L17.5714 27.2214C18.2832 26.9368 18.75 26.2473 18.75 25.4806V23.6988C17.0499 22.5129 15.9375 20.5426 15.9375 18.3125Z" fill="white"/>
</svg>
