<svg width="29" height="29" viewBox="0 0 29 29" fill="none" xmlns="http://www.w3.org/2000/svg">
<path d="M17.5208 7.25H9.0625C8.06148 7.25 7.25 8.06148 7.25 9.0625V22.3542C7.25 23.3552 8.06148 24.1667 9.0625 24.1667H17.5208C18.5218 24.1667 19.3333 23.3552 19.3333 22.3542V9.0625C19.3333 8.06148 18.5218 7.25 17.5208 7.25Z" fill="#3581FF"/>
<path d="M9.74432 6.11931C9.91094 6.0688 10.0877 6.04165 10.2708 6.04165H18.7292C19.7301 6.04165 20.5417 6.85313 20.5417 7.85415V21.1458C20.5417 21.3289 20.5145 21.5057 20.464 21.6723C21.2083 21.4468 21.75 20.7554 21.75 19.9375V6.64581C21.75 5.64479 20.9385 4.83331 19.9375 4.83331H11.4792C10.6613 4.83331 9.9699 5.37507 9.74432 6.11931Z" fill="#3581FF"/>
</svg>
