<svg width="45" height="45" viewBox="0 0 45 45" fill="none" xmlns="http://www.w3.org/2000/svg">
<path fill-rule="evenodd" clip-rule="evenodd" d="M10.2556 10.2556C10.8048 9.70646 11.6952 9.70646 12.2444 10.2556L34.7443 32.7557C35.2935 33.3049 35.2935 34.1951 34.7443 34.7443C34.1951 35.2935 33.3049 35.2935 32.7557 34.7443L10.2556 12.2444C9.70646 11.6952 9.70646 10.8048 10.2556 10.2556Z" fill="white"/>
<path fill-rule="evenodd" clip-rule="evenodd" d="M34.7443 10.2556C35.2935 10.8048 35.2935 11.6952 34.7443 12.2444L12.2444 34.7443C11.6952 35.2935 10.8048 35.2935 10.2556 34.7443C9.70646 34.1951 9.70646 33.3049 10.2556 32.7557L32.7557 10.2556C33.3048 9.70646 34.1951 9.70646 34.7443 10.2556Z" fill="white"/>
</svg>
