<svg width="13" height="19" viewBox="0 0 13 19" fill="none" xmlns="http://www.w3.org/2000/svg">
<path fill-rule="evenodd" clip-rule="evenodd" d="M2.5625 0.5C1.63052 0.5 0.875 1.25552 0.875 2.1875V16.8125C0.875 17.7444 1.63052 18.5 2.5625 18.5H10.4375C11.3694 18.5 12.125 17.7444 12.125 16.8125V2.1875C12.125 1.25552 11.3694 0.5 10.4375 0.5H2.5625ZM3.96875 2.75C3.50276 2.75 3.125 3.12776 3.125 3.59375V8.65625C3.125 9.12222 3.50276 9.5 3.96875 9.5H9.03125C9.49722 9.5 9.875 9.12222 9.875 8.65625V3.59375C9.875 3.12776 9.49722 2.75 9.03125 2.75H3.96875ZM3.125 12.0312C3.125 12.4972 3.50276 12.875 3.96875 12.875H4.53125C4.99722 12.875 5.375 12.4972 5.375 12.0312C5.375 11.5653 4.99722 11.1875 4.53125 11.1875H3.96875C3.50276 11.1875 3.125 11.5653 3.125 12.0312ZM8.46875 12.875C8.00278 12.875 7.625 12.4972 7.625 12.0312C7.625 11.5653 8.00278 11.1875 8.46875 11.1875H9.03125C9.49722 11.1875 9.875 11.5653 9.875 12.0312C9.875 12.4972 9.49722 12.875 9.03125 12.875H8.46875Z" fill="#3581FF"/>
</svg>
