<svg width="16" height="17" viewBox="0 0 16 17" fill="none" xmlns="http://www.w3.org/2000/svg">
<path d="M0.05 3.77719C0.150818 3.30782 0.398655 2.88874 0.752922 2.58858C1.10719 2.28842 1.54688 2.12497 2 2.125H14C14.4531 2.12497 14.8928 2.28842 15.2471 2.58858C15.6013 2.88874 15.8492 3.30782 15.95 3.77719L8 8.93987L0.05 3.77719ZM0 4.99056V12.5386L5.803 8.75819L0 4.99056ZM6.761 9.38188L0.191 13.6606C0.353327 14.0242 0.609527 14.3315 0.929782 14.5465C1.25004 14.7614 1.62117 14.8754 2 14.875H14C14.3788 14.8751 14.7498 14.7609 15.0698 14.5457C15.3899 14.3305 15.6459 14.0232 15.808 13.6595L9.238 9.38081L8 10.1851L6.761 9.38188ZM10.197 8.75925L16 12.5386V4.99056L10.197 8.75819V8.75925Z" fill="#3581FF"/>
</svg>
