<svg width="40" height="40" viewBox="0 0 40 40" fill="none" xmlns="http://www.w3.org/2000/svg">
<path fill-rule="evenodd" clip-rule="evenodd" d="M26.6506 13.0375C27.1488 12.5594 27.9399 12.5757 28.4179 13.0738L34.2343 19.1344C34.6984 19.6181 34.6984 20.3818 34.2343 20.8654L28.4179 26.9261C27.9399 27.4241 27.1488 27.4404 26.6506 26.9624C26.1526 26.4844 26.1363 25.6931 26.6143 25.1951L30.3999 21.2503H18.7871C18.0968 21.2503 17.5371 20.6906 17.5371 20.0003C17.5371 19.3099 18.0968 18.7503 18.7871 18.7503H30.4006L26.6143 14.8049C26.1363 14.3068 26.1526 13.5155 26.6506 13.0375Z" fill="white"/>
<path fill-rule="evenodd" clip-rule="evenodd" d="M5.41602 6.66663C5.41602 5.97628 5.97567 5.41663 6.66602 5.41663H22.4235C23.114 5.41663 23.6735 5.97628 23.6735 6.66663V11.6666C23.6735 12.357 23.114 12.9166 22.4235 12.9166C21.7332 12.9166 21.1735 12.357 21.1735 11.6666V7.91663H7.91602V32.0833H21.1735V28.3333C21.1735 27.643 21.7332 27.0833 22.4235 27.0833C23.114 27.0833 23.6735 27.643 23.6735 28.3333V33.3333C23.6735 34.0236 23.114 34.5833 22.4235 34.5833H6.66602C5.97567 34.5833 5.41602 34.0236 5.41602 33.3333V6.66663Z" fill="white"/>
</svg>
