<svg width="45" height="46" viewBox="0 0 45 46" fill="none" xmlns="http://www.w3.org/2000/svg">
<path fill-rule="evenodd" clip-rule="evenodd" d="M19.7079 12.9072C18.7348 15.4217 18.1029 18.9909 18.1029 23.0037C18.1029 27.0164 18.7348 30.5857 19.7079 33.1001C20.1961 34.3619 20.7431 35.2869 21.2786 35.8722C21.8133 36.4567 22.2279 36.5937 22.4999 36.5937C22.7722 36.5937 23.1868 36.4567 23.7215 35.8722C24.257 35.2869 24.8038 34.3619 25.2922 33.1001C26.2653 30.5857 26.8972 27.0164 26.8972 23.0037C26.8972 18.9909 26.2653 15.4217 25.2922 12.9072C24.8038 11.6453 24.257 10.7204 23.7215 10.1351C23.1868 9.5506 22.7722 9.41357 22.4999 9.41357C22.2279 9.41357 21.8133 9.5506 21.2786 10.1351C20.7431 10.7204 20.1961 11.6453 19.7079 12.9072ZM19.2035 8.23654C20.0574 7.3033 21.1696 6.60107 22.4999 6.60107C23.8304 6.60107 24.9427 7.3033 25.7964 8.23654C26.6495 9.16894 27.3532 10.4401 27.9151 11.8921C29.0424 14.8052 29.7097 18.7342 29.7097 23.0037C29.7097 27.2731 29.0424 31.2022 27.9151 34.1152C27.3532 35.5672 26.6495 36.8384 25.7964 37.7707C24.9427 38.7041 23.8304 39.4062 22.4999 39.4062C21.1696 39.4062 20.0574 38.7041 19.2035 37.7707C18.3505 36.8384 17.6468 35.5672 17.0849 34.1152C15.9576 31.2022 15.2904 27.2731 15.2904 23.0037C15.2904 18.7342 15.9576 14.8052 17.0849 11.8921C17.6468 10.4401 18.3505 9.16894 19.2035 8.23654Z" fill="white"/>
<path fill-rule="evenodd" clip-rule="evenodd" d="M22.5 9.39893C14.9924 9.39893 8.90625 15.4851 8.90625 22.9927C8.90625 30.5004 14.9924 36.5864 22.5 36.5864C30.0077 36.5864 36.0938 30.5004 36.0938 22.9927C36.0938 15.4851 30.0077 9.39893 22.5 9.39893ZM6.09375 22.9927C6.09375 13.9318 13.4391 6.58643 22.5 6.58643C31.5609 6.58643 38.9062 13.9318 38.9062 22.9927C38.9062 32.0536 31.5609 39.3989 22.5 39.3989C13.4391 39.3989 6.09375 32.0536 6.09375 22.9927Z" fill="white"/>
<path fill-rule="evenodd" clip-rule="evenodd" d="M6.09375 22.9816C6.09429 22.205 6.72433 21.5758 7.50099 21.5763L37.5009 21.5975C38.2776 21.5979 38.9068 22.2281 38.9062 23.0047C38.9057 23.7813 38.2757 24.4104 37.4991 24.41L7.49901 24.3888C6.72236 24.3883 6.09321 23.7583 6.09375 22.9816Z" fill="white"/>
</svg>
