<svg width="41" height="42" viewBox="0 0 41 42" fill="none" xmlns="http://www.w3.org/2000/svg">
<path d="M34.594 12.4608H6.40649C5.69888 12.4608 5.12524 13.0344 5.12524 13.742C5.12524 14.4496 5.69888 15.0233 6.40649 15.0233H34.594C35.3016 15.0233 35.8752 14.4496 35.8752 13.742C35.8752 13.0344 35.3016 12.4608 34.594 12.4608Z" fill="white"/>
<path d="M29.4685 19.7211H6.40601C5.69839 19.7211 5.12476 20.2948 5.12476 21.0024C5.12476 21.71 5.69839 22.2836 6.40601 22.2836H29.4685C30.1761 22.2836 30.7498 21.71 30.7498 21.0024C30.7498 20.2948 30.1761 19.7211 29.4685 19.7211Z" fill="white"/>
<path d="M34.5935 26.9768H6.40601C5.69839 26.9768 5.12476 27.5504 5.12476 28.258C5.12476 28.9656 5.69839 29.5393 6.40601 29.5393H34.5935C35.3011 29.5393 35.8748 28.9656 35.8748 28.258C35.8748 27.5504 35.3011 26.9768 34.5935 26.9768Z" fill="white"/>
</svg>
