<svg width="72" height="72" viewBox="0 0 72 72" fill="none" xmlns="http://www.w3.org/2000/svg">
<path fill-rule="evenodd" clip-rule="evenodd" d="M35.9998 24C35.9998 20.6863 38.6863 18 41.9998 18H53.9998C57.3136 18 59.9998 20.6863 59.9998 24V48C59.9998 51.3138 57.3136 54 53.9998 54H41.9998C38.6863 54 35.9998 51.3138 35.9998 48V24ZM41.9998 21C40.3432 21 38.9998 22.3432 38.9998 24V48C38.9998 49.6569 40.3432 51 41.9998 51H53.9998C55.6567 51 56.9998 49.6569 56.9998 48V24C56.9998 22.3432 55.6567 21 53.9998 21H41.9998Z" fill="white"/>
<path fill-rule="evenodd" clip-rule="evenodd" d="M16.4999 18C14.0146 18 11.9999 20.0147 11.9999 22.5V49.5C11.9999 51.9852 14.0146 54 16.4999 54H46.4997C48.9852 54 50.9997 51.9852 50.9997 49.5V22.5C50.9997 20.0147 48.9852 18 46.4997 18H16.4999ZM22.4999 40.5C24.9851 40.5 26.9999 38.4852 26.9999 36C26.9999 33.5148 24.9851 31.5 22.4999 31.5C20.0146 31.5 17.9999 33.5148 17.9999 36C17.9999 38.4852 20.0146 40.5 22.4999 40.5Z" fill="white"/>
</svg>
