<svg width="45" height="45" viewBox="0 0 45 45" fill="none" xmlns="http://www.w3.org/2000/svg">
<path d="M18.7502 29.9998C24.9634 29.9998 30.0002 24.9632 30.0002 18.7499C30.0002 18.3724 29.9814 17.9992 29.9453 17.6312C33.2856 19.0652 35.625 22.3843 35.625 26.2498C35.625 31.4276 31.4276 35.6248 26.25 35.6248C22.3845 35.6248 19.0654 33.2854 17.6313 29.9451C17.9994 29.9813 18.3726 29.9998 18.7502 29.9998Z" fill="#00163A"/>
<path d="M18.75 28.125C23.9277 28.125 28.125 23.9277 28.125 18.75C28.125 13.5723 23.9277 9.375 18.75 9.375C13.5723 9.375 9.375 13.5723 9.375 18.75C9.375 23.9277 13.5723 28.125 18.75 28.125Z" fill="#00163A"/>
</svg>
