<svg width="45" height="45" viewBox="0 0 45 45" fill="none" xmlns="http://www.w3.org/2000/svg">
<path opacity="0.25" d="M28.9431 27.7091C27.8269 27.2393 26.4375 26.6539 26.4375 26.2031V23.2611C28.0643 22.0365 29.0625 20.0533 29.0625 18V14.0625C29.0625 10.4439 26.1186 7.5 22.5 7.5C18.8814 7.5 15.9375 10.4439 15.9375 14.0625V18C15.9375 20.0528 16.9357 22.0365 18.5625 23.2611V26.2031C18.5625 26.6263 17.1863 27.2151 16.0812 27.6876C13.4103 28.8294 9.375 30.5546 9.375 35.0625V35.7187H35.625V35.0625C35.625 30.5252 31.6042 28.8307 28.9431 27.7091Z" fill="black"/>
<path d="M15.9375 17.8125V14.0625C15.9375 10.4381 18.8756 7.5 22.5 7.5C26.1244 7.5 29.0625 10.4381 29.0625 14.0625V17.8125C29.0625 20.0426 27.9501 22.0129 26.25 23.1988V24.9806C26.25 25.7473 26.7169 26.4368 27.4286 26.7214L30.4024 27.9109C33.5567 29.1726 35.625 32.2277 35.625 35.625H9.375C9.375 32.2277 11.4434 29.1726 14.5977 27.9109L17.5714 26.7214C18.2832 26.4368 18.75 25.7473 18.75 24.9806V23.1988C17.0499 22.0129 15.9375 20.0426 15.9375 17.8125Z" fill="white"/>
</svg>
