<svg width="45" height="45" viewBox="0 0 45 45" fill="none" xmlns="http://www.w3.org/2000/svg">
<path fill-rule="evenodd" clip-rule="evenodd" d="M33.0988 19.4055L36.9534 20.0355C37.2692 20.0869 37.5006 20.3595 37.5 20.6792V24.2661C37.5 24.5824 37.2729 24.8537 36.9606 24.9084L33.1007 25.5861C32.877 26.3595 32.5699 27.1044 32.1831 27.8087L34.4646 30.9763C34.6517 31.2358 34.6224 31.5926 34.3967 31.8189L31.8608 34.3566C31.6365 34.5803 31.2842 34.6121 31.0247 34.4289L27.8254 32.1847C27.1198 32.5774 26.3704 32.8905 25.5883 33.1206L24.9068 36.9619C24.852 37.2731 24.5813 37.5 24.2649 37.5H20.6777C20.3588 37.5 20.0867 37.2698 20.0353 36.9561L19.3986 33.1337C18.6179 32.9081 17.8646 32.5969 17.1517 32.205L13.9753 34.4295C13.7164 34.6116 13.3636 34.5803 13.1398 34.3566L10.604 31.8189C10.3789 31.5926 10.3496 31.2371 10.5348 30.9782L12.7792 27.8394C12.3833 27.1232 12.0689 26.3674 11.8412 25.5829L8.03809 24.9084C7.72697 24.8531 7.5 24.5824 7.5 24.2661V20.6792C7.5 20.3608 7.73089 20.0882 8.04527 20.0361L11.8484 19.4029C12.0774 18.6163 12.3917 17.8604 12.7863 17.1463L10.5694 13.9748C10.3874 13.7159 10.4187 13.3637 10.6424 13.14L13.1777 10.605C13.404 10.38 13.7582 10.35 14.0184 10.5359L17.1687 12.7859C17.8763 12.3985 18.6277 12.09 19.4104 11.865L20.034 8.04718C20.0854 7.73153 20.358 7.5 20.6777 7.5H24.2649C24.582 7.5 24.8526 7.72826 24.9073 8.04L25.5799 11.8787C26.358 12.105 27.108 12.4167 27.8183 12.8093L30.9771 10.5391C31.2366 10.352 31.5928 10.3813 31.8191 10.607L34.3556 13.142C34.5793 13.3663 34.6106 13.7191 34.4286 13.9781L32.1784 17.1848C32.5646 17.8885 32.8731 18.632 33.0988 19.4055ZM17.9344 22.5C17.9344 25.0213 19.9785 27.0653 22.5 27.0653C25.0215 27.0653 27.0656 25.0213 27.0656 22.5C27.0656 19.9787 25.0215 17.9348 22.5 17.9348C19.9785 17.9348 17.9344 19.9787 17.9344 22.5Z" fill="white"/>
</svg>
