<svg width="45" height="45" viewBox="0 0 45 45" fill="none" xmlns="http://www.w3.org/2000/svg">
<path fill-rule="evenodd" clip-rule="evenodd" d="M14.0625 7.5C12.5092 7.5 11.25 8.75919 11.25 10.3125V34.6875C11.25 36.2408 12.5092 37.5 14.0625 37.5H30.9375C32.4907 37.5 33.75 36.2408 33.75 34.6875V10.3125C33.75 8.75919 32.4907 7.5 30.9375 7.5H14.0625ZM26.913 15.6629C27.279 15.2968 27.279 14.7032 26.913 14.3371C26.5468 13.971 25.9532 13.971 25.587 14.3371L18.0871 21.837C17.721 22.2032 17.721 22.7968 18.0871 23.163C18.4532 23.529 19.0468 23.529 19.413 23.163L26.913 15.6629ZM21.5625 15.9375C21.5625 16.973 20.7231 17.8125 19.6875 17.8125C18.652 17.8125 17.8125 16.973 17.8125 15.9375C17.8125 14.902 18.652 14.0625 19.6875 14.0625C20.7231 14.0625 21.5625 14.902 21.5625 15.9375ZM25.3125 23.4375C26.3481 23.4375 27.1875 22.5981 27.1875 21.5625C27.1875 20.5269 26.3481 19.6875 25.3125 19.6875C24.2769 19.6875 23.4375 20.5269 23.4375 21.5625C23.4375 22.5981 24.2769 23.4375 25.3125 23.4375ZM15.9375 28.125C15.9375 27.6073 16.3572 27.1875 16.875 27.1875H28.125C28.6427 27.1875 29.0625 27.6073 29.0625 28.125C29.0625 28.6427 28.6427 29.0625 28.125 29.0625H16.875C16.3572 29.0625 15.9375 28.6427 15.9375 28.125ZM16.875 30.9375C16.3572 30.9375 15.9375 31.3573 15.9375 31.875C15.9375 32.3927 16.3572 32.8125 16.875 32.8125H28.125C28.6427 32.8125 29.0625 32.3927 29.0625 31.875C29.0625 31.3573 28.6427 30.9375 28.125 30.9375H16.875Z" fill="white"/>
</svg>
