<svg width="45" height="45" viewBox="0 0 45 45" fill="none" xmlns="http://www.w3.org/2000/svg">
<path d="M23.5112 13.4349C24.4491 13.1314 25.2021 12.4171 25.5581 11.5042L33.4958 19.4419C32.5828 19.7979 31.8684 20.5509 31.5651 21.4886L23.5112 13.4349Z" fill="#00163A"/>
<path d="M31.5651 23.5114L23.5114 31.5651C24.4491 31.8686 25.2021 32.583 25.5581 33.4958L33.4958 25.5581C32.5828 25.2021 31.8684 24.4493 31.5651 23.5114Z" fill="#00163A"/>
<path d="M21.4888 31.5651L13.4349 23.5112C13.1315 24.4489 12.4172 25.2021 11.5044 25.5581L19.4419 33.4956C19.798 32.5826 20.551 31.8685 21.4888 31.5651Z" fill="#00163A"/>
<path d="M21.4888 13.435L13.4349 21.489C13.1315 20.5511 12.4172 19.7981 11.5044 19.4421L19.4419 11.5045C19.798 12.4173 20.551 13.1316 21.4888 13.435Z" fill="#00163A"/>
<path fill-rule="evenodd" clip-rule="evenodd" d="M22.5 8.4375C21.4644 8.4375 20.625 9.27697 20.625 10.3125C20.625 11.348 21.4644 12.1875 22.5 12.1875C23.5356 12.1875 24.375 11.348 24.375 10.3125C24.375 9.27697 23.5356 8.4375 22.5 8.4375ZM17.8125 10.3125C17.8125 7.72367 19.9112 5.625 22.5 5.625C25.0888 5.625 27.1875 7.72367 27.1875 10.3125C27.1875 12.9013 25.0888 15 22.5 15C19.9112 15 17.8125 12.9013 17.8125 10.3125Z" fill="#00163A"/>
<path d="M22.5 39.375C25.0888 39.375 27.1875 37.2763 27.1875 34.6875C27.1875 32.0987 25.0888 30 22.5 30C19.9112 30 17.8125 32.0987 17.8125 34.6875C17.8125 37.2763 19.9112 39.375 22.5 39.375Z" fill="#00163A"/>
<path d="M10.3125 27.1875C12.9013 27.1875 15 25.0888 15 22.5C15 19.9112 12.9013 17.8125 10.3125 17.8125C7.72367 17.8125 5.625 19.9112 5.625 22.5C5.625 25.0888 7.72367 27.1875 10.3125 27.1875Z" fill="#00163A"/>
<path d="M34.6875 27.1875C37.2763 27.1875 39.375 25.0888 39.375 22.5C39.375 19.9112 37.2763 17.8125 34.6875 17.8125C32.0987 17.8125 30 19.9112 30 22.5C30 25.0888 32.0987 27.1875 34.6875 27.1875Z" fill="#00163A"/>
</svg>
