<svg width="45" height="45" viewBox="0 0 45 45" fill="none" xmlns="http://www.w3.org/2000/svg">
<path fill-rule="evenodd" clip-rule="evenodd" d="M11.25 9.375C10.2145 9.375 9.375 10.2145 9.375 11.25V33.75C9.375 34.7856 10.2145 35.625 11.25 35.625H33.75C34.7856 35.625 35.625 34.7856 35.625 33.75V11.25C35.625 10.2145 34.7856 9.375 33.75 9.375H11.25ZM17.8125 20.625C19.3658 20.625 20.625 19.3658 20.625 17.8125C20.625 16.2592 19.3658 15 17.8125 15C16.2592 15 15 16.2592 15 17.8125C15 19.3658 16.2592 20.625 17.8125 20.625ZM14.0215 29.5031L17.0175 24.7095C17.3847 24.1221 18.2403 24.1221 18.6075 24.7095L21.0544 28.6245L24.9741 21.9909C25.3371 21.3769 26.2254 21.3769 26.5884 21.9909L31.0391 29.523C31.4085 30.1479 30.9579 30.9375 30.2321 30.9375H21.3304C21.2387 30.9375 21.1513 30.9249 21.0696 30.9017C20.9878 30.9249 20.9004 30.9375 20.8086 30.9375H14.8165C14.0801 30.9375 13.6312 30.1275 14.0215 29.5031Z" fill="#00163A"/>
</svg>
