<svg width="34.000000" height="34.000000" viewBox="0 0 34 34" fill="none" xmlns="http://www.w3.org/2000/svg" xmlns:xlink="http://www.w3.org/1999/xlink">
	<desc>
			Created with Pixso.
	</desc>
	<defs>
		<clipPath id="clip363_6342">
			<rect id="file" rx="0.000000" width="33.000000" height="33.000000" transform="translate(0.500000 0.500000)" fill="white" fill-opacity="0"/>
		</clipPath>
	</defs>
	<rect id="file" rx="0.000000" width="33.000000" height="33.000000" transform="translate(0.500000 0.500000)" fill="#FFFFFF" fill-opacity="0"/>
	<g clip-path="url(#clip363_6342)">
		<path id="Vector" d="M18.41 5.66L10.62 5.66C9.45 5.66 8.5 6.61 8.5 7.79L8.5 26.2C8.5 27.38 9.45 28.33 10.62 28.33L23.37 28.33C24.54 28.33 25.5 27.38 25.5 26.2L25.5 12.75L25.49 12.75L18.41 5.66ZM17 7.93L17 13.81C17 14 17.15 14.16 17.35 14.16L23.22 14.16C23.54 14.16 23.7 13.78 23.47 13.56L17.6 7.68C17.38 7.46 17 7.62 17 7.93Z" fill="#00163A" fill-opacity="1.000000" fill-rule="evenodd"/>
	</g>
</svg>
