<svg width="34.000000" height="34.000000" viewBox="0 0 34 34" fill="none" xmlns="http://www.w3.org/2000/svg" xmlns:xlink="http://www.w3.org/1999/xlink">
	<desc>
			Created with Pixso.
	</desc>
	<defs>
		<clipPath id="clip363_6350">
			<rect id="receive" rx="0.000000" width="33.000000" height="33.000000" transform="translate(0.500000 0.500000)" fill="white" fill-opacity="0"/>
		</clipPath>
	</defs>
	<rect id="receive" rx="0.000000" width="33.000000" height="33.000000" transform="translate(0.500000 0.500000)" fill="#FFFFFF" fill-opacity="0"/>
	<g clip-path="url(#clip363_6350)">
		<path id="Vector" d="M7.08 21.24C7.66 21.24 8.14 21.72 8.14 22.3L8.14 25.5C8.14 25.69 8.3 25.85 8.5 25.85L25.5 25.85C25.69 25.85 25.85 25.69 25.85 25.5L25.85 22.3C25.85 21.72 26.33 21.24 26.91 21.24C27.5 21.24 27.98 21.72 27.98 22.3L27.98 25.5C27.98 26.86 26.86 27.97 25.5 27.97L8.5 27.97C7.13 27.97 6.02 26.86 6.02 25.5L6.02 22.3C6.02 21.72 6.49 21.24 7.08 21.24Z" fill="#00163A" fill-opacity="1.000000" fill-rule="evenodd"/>
		<path id="Vector" d="M17.28 6.02C17.87 6.02 18.34 6.49 18.34 7.08L18.34 18.53C18.34 19.12 17.87 19.6 17.28 19.6C16.7 19.6 16.22 19.12 16.22 18.53L16.22 7.08C16.22 6.49 16.7 6.02 17.28 6.02Z" fill="#00163A" fill-opacity="1.000000" fill-rule="evenodd"/>
		<path id="Vector" d="M11.78 15.05C12.19 14.63 12.87 14.62 13.29 15.03L17.28 18.93L21.28 15.03C21.69 14.62 22.37 14.63 22.78 15.05C23.19 15.47 23.18 16.14 22.76 16.55L18.02 21.18C17.61 21.58 16.95 21.58 16.54 21.18L11.8 16.55C11.38 16.14 11.37 15.47 11.78 15.05Z" fill="#00163A" fill-opacity="1.000000" fill-rule="evenodd"/>
	</g>
</svg>
