<svg width="34.000000" height="34.000000" viewBox="0 0 34 34" fill="none" xmlns="http://www.w3.org/2000/svg" xmlns:xlink="http://www.w3.org/1999/xlink">
	<desc>
			Created with Pixso.
	</desc>
	<defs>
		<clipPath id="clip363_6330">
			<rect id="safe" rx="0.000000" width="33.000000" height="33.000000" transform="translate(0.500000 0.500000)" fill="white" fill-opacity="0"/>
		</clipPath>
	</defs>
	<rect id="safe" rx="0.000000" width="33.000000" height="33.000000" transform="translate(0.500000 0.500000)" fill="#FFFFFF" fill-opacity="0"/>
	<g clip-path="url(#clip363_6330)">
		<path id="Vector" d="M10.62 10.62L10.62 23.37L23.37 23.37L23.37 10.62L10.62 10.62ZM17 19.83C17.52 19.83 18.01 19.69 18.43 19.44L20.04 21.04C20.31 21.31 20.76 21.31 21.04 21.04C21.31 20.76 21.31 20.31 21.04 20.04L19.44 18.43C19.68 18.01 19.83 17.52 19.83 17C19.83 16.47 19.68 15.98 19.44 15.56L21.04 13.95C21.31 13.68 21.31 13.23 21.04 12.95C20.76 12.68 20.31 12.68 20.04 12.95L18.43 14.55C18.01 14.3 17.52 14.16 17 14.16C16.47 14.16 15.98 14.3 15.56 14.55L13.95 12.95C13.68 12.68 13.23 12.68 12.95 12.95C12.68 13.23 12.68 13.68 12.95 13.95L14.55 15.56C14.31 15.98 14.16 16.47 14.16 17C14.16 17.52 14.31 18.01 14.55 18.43L12.95 20.04C12.68 20.31 12.68 20.76 12.95 21.04C13.23 21.31 13.68 21.31 13.95 21.04L15.56 19.44C15.98 19.69 16.47 19.83 17 19.83Z" fill="#00163A" fill-opacity="1.000000" fill-rule="evenodd"/>
		<path id="Vector" d="M7.08 8.5C7.08 7.71 7.71 7.08 8.5 7.08L25.5 7.08C26.28 7.08 26.91 7.71 26.91 8.5L26.91 25.4C26.91 26.18 26.28 26.82 25.5 26.82L8.5 26.82C7.71 26.82 7.08 26.18 7.08 25.4L7.08 8.5ZM9.2 9.91C9.2 9.52 9.52 9.2 9.91 9.2L24.08 9.2C24.47 9.2 24.79 9.52 24.79 9.91L24.79 24.08C24.79 24.47 24.47 24.79 24.08 24.79L9.91 24.79C9.52 24.79 9.2 24.47 9.2 24.08L9.2 9.91Z" fill="#00163A" fill-opacity="1.000000" fill-rule="evenodd"/>
		<path id="Vector" d="M18.41 17C18.41 17.78 17.78 18.41 17 18.41C16.21 18.41 15.58 17.78 15.58 17C15.58 16.21 16.21 15.58 17 15.58C17.78 15.58 18.41 16.21 18.41 17Z" fill="#00163A" fill-opacity="1.000000" fill-rule="evenodd"/>
		<path id="Vector" d="M9.91 26.91L12.75 26.91L12.75 27.73C12.75 28.06 12.48 28.33 12.15 28.33L10.51 28.33C10.18 28.33 9.91 28.06 9.91 27.73L9.91 26.91Z" fill="#00163A" fill-opacity="1.000000" fill-rule="nonzero"/>
		<path id="Vector" d="M21.25 26.91L24.08 26.91L24.08 27.73C24.08 28.06 23.81 28.33 23.48 28.33L21.84 28.33C21.51 28.33 21.25 28.06 21.25 27.73L21.25 26.91Z" fill="#00163A" fill-opacity="1.000000" fill-rule="nonzero"/>
	</g>
</svg>
