<svg width="34.000000" height="34.000000" viewBox="0 0 34 34" fill="none" xmlns="http://www.w3.org/2000/svg" xmlns:xlink="http://www.w3.org/1999/xlink">
	<desc>
			Created with Pixso.
	</desc>
	<defs>
		<clipPath id="clip363_6360">
			<rect id="send" rx="0.000000" width="33.000000" height="33.000000" transform="translate(0.500000 0.500000)" fill="white" fill-opacity="0"/>
		</clipPath>
	</defs>
	<rect id="send" rx="0.000000" width="33.000000" height="33.000000" transform="translate(0.500000 0.500000)" fill="#FFFFFF" fill-opacity="0"/>
	<g clip-path="url(#clip363_6360)">
		<path id="Vector" d="M7.08 21.24C7.66 21.24 8.14 21.72 8.14 22.3L8.14 25.5C8.14 25.69 8.3 25.85 8.5 25.85L25.5 25.85C25.69 25.85 25.85 25.69 25.85 25.5L25.85 22.3C25.85 21.72 26.33 21.24 26.91 21.24C27.5 21.24 27.98 21.72 27.98 22.3L27.98 25.5C27.98 26.86 26.86 27.97 25.5 27.97L8.5 27.97C7.13 27.97 6.02 26.86 6.02 25.5L6.02 22.3C6.02 21.72 6.49 21.24 7.08 21.24Z" fill="#00163A" fill-opacity="1.000000" fill-rule="evenodd"/>
		<path id="Vector" d="M17.28 7.9C17.87 7.9 18.34 8.38 18.34 8.96L18.34 20.42C18.34 21.01 17.87 21.48 17.28 21.48C16.7 21.48 16.22 21.01 16.22 20.42L16.22 8.96C16.22 8.38 16.7 7.9 17.28 7.9Z" fill="#00163A" fill-opacity="1.000000" fill-rule="evenodd"/>
		<path id="Vector" d="M16.54 6.32C16.95 5.92 17.61 5.92 18.02 6.32L22.76 10.95C23.18 11.36 23.19 12.03 22.78 12.45C22.37 12.87 21.7 12.88 21.28 12.47L17.28 8.56L13.29 12.47C12.87 12.88 12.19 12.87 11.78 12.45C11.37 12.03 11.38 11.36 11.8 10.95L16.54 6.32Z" fill="#00163A" fill-opacity="1.000000" fill-rule="evenodd"/>
	</g>
</svg>
