<svg width="45" height="45" viewBox="0 0 45 45" fill="none" xmlns="http://www.w3.org/2000/svg">
<path d="M9.375 14.0625C9.375 12.5092 10.6342 11.25 12.1875 11.25H32.8125C34.3657 11.25 35.625 12.5092 35.625 14.0625V16.875H9.375V14.0625Z" fill="#3581FF"/>
<path fill-rule="evenodd" clip-rule="evenodd" d="M30 8.4375C30.5177 8.4375 30.9375 8.85724 30.9375 9.375V13.125C30.9375 13.6428 30.5177 14.0625 30 14.0625C29.4823 14.0625 29.0625 13.6428 29.0625 13.125V9.375C29.0625 8.85724 29.4823 8.4375 30 8.4375Z" fill="#3581FF"/>
<path fill-rule="evenodd" clip-rule="evenodd" d="M15 8.4375C15.5178 8.4375 15.9375 8.85724 15.9375 9.375V13.125C15.9375 13.6428 15.5178 14.0625 15 14.0625C14.4822 14.0625 14.0625 13.6428 14.0625 13.125V9.375C14.0625 8.85724 14.4822 8.4375 15 8.4375Z" fill="#3581FF"/>
<path fill-rule="evenodd" clip-rule="evenodd" d="M9.375 18.75H35.625V30.9375C35.625 32.4908 34.3657 33.75 32.8125 33.75H12.1875C10.6342 33.75 9.375 32.4908 9.375 30.9375V18.75ZM29.0625 22.5C29.0625 21.9823 29.4823 21.5625 30 21.5625H31.875C32.3927 21.5625 32.8125 21.9823 32.8125 22.5C32.8125 23.0177 32.3927 23.4375 31.875 23.4375H30C29.4823 23.4375 29.0625 23.0177 29.0625 22.5ZM24.375 21.5625C23.8573 21.5625 23.4375 21.9823 23.4375 22.5C23.4375 23.0177 23.8573 23.4375 24.375 23.4375H26.25C26.7677 23.4375 27.1875 23.0177 27.1875 22.5C27.1875 21.9823 26.7677 21.5625 26.25 21.5625H24.375ZM17.8125 22.5C17.8125 21.9823 18.2322 21.5625 18.75 21.5625H20.625C21.1427 21.5625 21.5625 21.9823 21.5625 22.5C21.5625 23.0177 21.1427 23.4375 20.625 23.4375H18.75C18.2322 23.4375 17.8125 23.0177 17.8125 22.5ZM13.125 25.3125C12.6072 25.3125 12.1875 25.7323 12.1875 26.25C12.1875 26.7677 12.6072 27.1875 13.125 27.1875H15C15.5178 27.1875 15.9375 26.7677 15.9375 26.25C15.9375 25.7323 15.5178 25.3125 15 25.3125H13.125ZM29.0625 26.25C29.0625 25.7323 29.4823 25.3125 30 25.3125H31.875C32.3927 25.3125 32.8125 25.7323 32.8125 26.25C32.8125 26.7677 32.3927 27.1875 31.875 27.1875H30C29.4823 27.1875 29.0625 26.7677 29.0625 26.25ZM24.375 25.3125C23.8573 25.3125 23.4375 25.7323 23.4375 26.25C23.4375 26.7677 23.8573 27.1875 24.375 27.1875H26.25C26.7677 27.1875 27.1875 26.7677 27.1875 26.25C27.1875 25.7323 26.7677 25.3125 26.25 25.3125H24.375ZM17.8125 26.25C17.8125 25.7323 18.2322 25.3125 18.75 25.3125H20.625C21.1427 25.3125 21.5625 25.7323 21.5625 26.25C21.5625 26.7677 21.1427 27.1875 20.625 27.1875H18.75C18.2322 27.1875 17.8125 26.7677 17.8125 26.25ZM13.125 29.0625C12.6072 29.0625 12.1875 29.4823 12.1875 30C12.1875 30.5177 12.6072 30.9375 13.125 30.9375H15C15.5178 30.9375 15.9375 30.5177 15.9375 30C15.9375 29.4823 15.5178 29.0625 15 29.0625H13.125ZM23.4375 30C23.4375 29.4823 23.8573 29.0625 24.375 29.0625H26.25C26.7677 29.0625 27.1875 29.4823 27.1875 30C27.1875 30.5177 26.7677 30.9375 26.25 30.9375H24.375C23.8573 30.9375 23.4375 30.5177 23.4375 30ZM18.75 29.0625C18.2322 29.0625 17.8125 29.4823 17.8125 30C17.8125 30.5177 18.2322 30.9375 18.75 30.9375H20.625C21.1427 30.9375 21.5625 30.5177 21.5625 30C21.5625 29.4823 21.1427 29.0625 20.625 29.0625H18.75Z" fill="#3581FF"/>
</svg>
