<svg width="45" height="45" viewBox="0 0 45 45" fill="none" xmlns="http://www.w3.org/2000/svg">
<path d="M7.5 14.0625C7.5 12.5092 8.75919 11.25 10.3125 11.25H34.6875C36.2407 11.25 37.5 12.5092 37.5 14.0625V16.875H7.5V14.0625Z" fill="#3581FF"/>
<path fill-rule="evenodd" clip-rule="evenodd" d="M7.5 18.75H37.5V30.9375C37.5 32.4908 36.2407 33.75 34.6875 33.75H10.3125C8.75919 33.75 7.5 32.4908 7.5 30.9375V18.75ZM13.125 24.375C13.125 23.8573 13.5447 23.4375 14.0625 23.4375H21.5625C22.0802 23.4375 22.5 23.8573 22.5 24.375C22.5 24.8927 22.0802 25.3125 21.5625 25.3125H14.0625C13.5447 25.3125 13.125 24.8927 13.125 24.375ZM14.0625 27.1875C13.5447 27.1875 13.125 27.6073 13.125 28.125C13.125 28.6427 13.5447 29.0625 14.0625 29.0625H19.6875C20.2052 29.0625 20.625 28.6427 20.625 28.125C20.625 27.6073 20.2052 27.1875 19.6875 27.1875H14.0625Z" fill="#3581FF"/>
</svg>
