<svg width="45" height="45" viewBox="0 0 45 45" fill="none" xmlns="http://www.w3.org/2000/svg">
<path fill-rule="evenodd" clip-rule="evenodd" d="M10.3125 33.75C10.3125 33.2323 10.7322 32.8125 11.25 32.8125H33.75C34.2677 32.8125 34.6875 33.2323 34.6875 33.75C34.6875 34.2677 34.2677 34.6875 33.75 34.6875H11.25C10.7322 34.6875 10.3125 34.2677 10.3125 33.75Z" fill="#3581FF"/>
<path d="M16.875 21.5625H13.125C12.6072 21.5625 12.1875 21.9822 12.1875 22.5V33.75C12.1875 34.2678 12.6072 34.6875 13.125 34.6875H16.875C17.3928 34.6875 17.8125 34.2678 17.8125 33.75V22.5C17.8125 21.9822 17.3928 21.5625 16.875 21.5625Z" fill="#3581FF"/>
<path d="M24.375 10.3125H20.625C20.1072 10.3125 19.6875 10.7322 19.6875 11.25V33.75C19.6875 34.2678 20.1072 34.6875 20.625 34.6875H24.375C24.8928 34.6875 25.3125 34.2678 25.3125 33.75V11.25C25.3125 10.7322 24.8928 10.3125 24.375 10.3125Z" fill="#3581FF"/>
<path d="M31.875 15.9375H28.125C27.6072 15.9375 27.1875 16.3572 27.1875 16.875V33.75C27.1875 34.2678 27.6072 34.6875 28.125 34.6875H31.875C32.3928 34.6875 32.8125 34.2678 32.8125 33.75V16.875C32.8125 16.3572 32.3928 15.9375 31.875 15.9375Z" fill="#3581FF"/>
</svg>
