<svg width="45" height="45" viewBox="0 0 45 45" fill="none" xmlns="http://www.w3.org/2000/svg">
<path d="M9.375 19.125V10.875C9.375 10.0466 10.0466 9.375 10.875 9.375H19.125C19.9534 9.375 20.625 10.0466 20.625 10.875V19.125C20.625 19.9534 19.9534 20.625 19.125 20.625H10.875C10.0466 20.625 9.375 19.9534 9.375 19.125Z" fill="#3581FF"/>
<path d="M24.375 19.125V10.875C24.375 10.0466 25.0466 9.375 25.875 9.375H34.125C34.9534 9.375 35.625 10.0466 35.625 10.875V19.125C35.625 19.9534 34.9534 20.625 34.125 20.625H25.875C25.0466 20.625 24.375 19.9534 24.375 19.125Z" fill="#3581FF"/>
<path d="M24.375 34.125V25.875C24.375 25.0466 25.0466 24.375 25.875 24.375H34.125C34.9534 24.375 35.625 25.0466 35.625 25.875V34.125C35.625 34.9534 34.9534 35.625 34.125 35.625H25.875C25.0466 35.625 24.375 34.9534 24.375 34.125Z" fill="#3581FF"/>
<path d="M9.375 34.125V25.875C9.375 25.0466 10.0466 24.375 10.875 24.375H19.125C19.9534 24.375 20.625 25.0466 20.625 25.875V34.125C20.625 34.9534 19.9534 35.625 19.125 35.625H10.875C10.0466 35.625 9.375 34.9534 9.375 34.125Z" fill="#3581FF"/>
</svg>
