<svg width="45" height="45" viewBox="0 0 45 45" fill="none" xmlns="http://www.w3.org/2000/svg">
<path fill-rule="evenodd" clip-rule="evenodd" d="M9.37506 12.1875C9.37506 10.6342 10.6343 9.375 12.1876 9.375H32.8125C34.3659 9.375 35.625 10.6342 35.625 12.1875V32.8125C35.625 34.3657 34.3659 35.625 32.8125 35.625H12.1876C10.6343 35.625 9.37506 34.3657 9.37506 32.8125V12.1875ZM12.1876 12.1875H16.8751V15H12.1876V12.1875ZM16.8751 18.125H12.1876V20.9376H16.8751V18.125ZM12.1876 24.0624H16.8751V26.8749H12.1876V24.0624ZM16.8751 30H12.1876V32.8125H16.8751V30ZM20.1564 12.1875H24.8439V15H20.1564V12.1875ZM24.8437 18.125H20.1562V20.9376H24.8437V18.125ZM20.1562 24.0624H24.8437V26.8749H20.1562V24.0624ZM24.8437 30H20.1562V32.8125H24.8437V30ZM28.125 12.1875H32.8125V15H28.125V12.1875ZM32.8125 18.125H28.125V20.9376H32.8125V18.125ZM28.125 24.0624H32.8125V26.8749H28.125V24.0624ZM32.8125 30H28.125V32.8125H32.8125V30Z" fill="#3581FF"/>
</svg>
