<svg width="45" height="45" viewBox="0 0 45 45" fill="none" xmlns="http://www.w3.org/2000/svg">
<g clip-path="url(#clip0_124_998)">
<path d="M33.75 2.8125C34.4959 2.8125 35.2113 3.10882 35.7387 3.63626C36.2662 4.16371 36.5625 4.87908 36.5625 5.625V35.8734C36.5625 35.8734 33.75 30.9375 22.5 30.9375C11.25 30.9375 8.4375 35.8734 8.4375 35.8734V5.625C8.4375 4.87908 8.73382 4.16371 9.26126 3.63626C9.78871 3.10882 10.5041 2.8125 11.25 2.8125H33.75ZM11.25 0C9.75816 0 8.32742 0.592632 7.27252 1.64752C6.21763 2.70242 5.625 4.13316 5.625 5.625V39.375C5.625 40.8668 6.21763 42.2976 7.27252 43.3525C8.32742 44.4074 9.75816 45 11.25 45H33.75C35.2418 45 36.6726 44.4074 37.7275 43.3525C38.7824 42.2976 39.375 40.8668 39.375 39.375V5.625C39.375 4.13316 38.7824 2.70242 37.7275 1.64752C36.6726 0.592632 35.2418 0 33.75 0L11.25 0Z" fill="#00163A"/>
<path d="M22.5 28.125C23.608 28.125 24.7052 27.9068 25.7289 27.4827C26.7526 27.0587 27.6827 26.4372 28.4662 25.6537C29.2497 24.8702 29.8712 23.9401 30.2952 22.9164C30.7193 21.8927 30.9375 20.7955 30.9375 19.6875C30.9375 18.5795 30.7193 17.4823 30.2952 16.4586C29.8712 15.4349 29.2497 14.5048 28.4662 13.7213C27.6827 12.9378 26.7526 12.3163 25.7289 11.8923C24.7052 11.4682 23.608 11.25 22.5 11.25C20.2622 11.25 18.1161 12.1389 16.5338 13.7213C14.9514 15.3036 14.0625 17.4497 14.0625 19.6875C14.0625 21.9253 14.9514 24.0714 16.5338 25.6537C18.1161 27.2361 20.2622 28.125 22.5 28.125Z" fill="#00163A"/>
</g>
<defs>
<clipPath id="clip0_124_998">
<rect width="45" height="45" fill="white"/>
</clipPath>
</defs>
</svg>
