<svg width="45" height="45" viewBox="0 0 45 45" fill="none" xmlns="http://www.w3.org/2000/svg">
<g clip-path="url(#clip0_124_995)">
<path d="M33.75 0H11.25C9.75816 0 8.32742 0.592632 7.27252 1.64752C6.21763 2.70242 5.625 4.13316 5.625 5.625V39.375C5.625 40.8668 6.21763 42.2976 7.27252 43.3525C8.32742 44.4074 9.75816 45 11.25 45H33.75C35.2418 45 36.6726 44.4074 37.7275 43.3525C38.7824 42.2976 39.375 40.8668 39.375 39.375V5.625C39.375 4.13316 38.7824 2.70242 37.7275 1.64752C36.6726 0.592632 35.2418 0 33.75 0ZM30.9375 19.6875C30.9375 21.9253 30.0486 24.0714 28.4662 25.6537C26.8839 27.2361 24.7378 28.125 22.5 28.125C20.2622 28.125 18.1161 27.2361 16.5338 25.6537C14.9514 24.0714 14.0625 21.9253 14.0625 19.6875C14.0625 17.4497 14.9514 15.3036 16.5338 13.7213C18.1161 12.1389 20.2622 11.25 22.5 11.25C24.7378 11.25 26.8839 12.1389 28.4662 13.7213C30.0486 15.3036 30.9375 17.4497 30.9375 19.6875ZM22.5 30.9375C29.8772 30.9375 34.1606 33.2606 36.5625 35.8734V39.375C36.5625 40.1209 36.2662 40.8363 35.7387 41.3637C35.2113 41.8912 34.4959 42.1875 33.75 42.1875H11.25C10.5041 42.1875 9.78871 41.8912 9.26126 41.3637C8.73382 40.8363 8.4375 40.1209 8.4375 39.375V35.8734C10.8394 33.2578 15.1228 30.9375 22.5 30.9375Z" fill="#00163A"/>
</g>
<defs>
<clipPath id="clip0_124_995">
<rect width="45" height="45" fill="white"/>
</clipPath>
</defs>
</svg>
