<svg width="45" height="45" viewBox="0 0 45 45" fill="none" xmlns="http://www.w3.org/2000/svg">
<g clip-path="url(#clip0_124_1002)">
<path d="M19.6875 44.6484C19.6875 44.6484 16.875 44.6484 16.875 41.8359C16.875 39.0234 19.6875 30.5859 30.9375 30.5859C42.1875 30.5859 44.2969 38.1445 44.2969 40.957C44.2969 43.7695 40.957 44.4727 40.957 44.4727L19.6875 44.6484ZM30.9375 27.7734C33.1753 27.7734 35.3214 26.8845 36.9037 25.3022C38.4861 23.7198 39.375 21.5737 39.375 19.3359C39.375 17.0982 38.4861 14.9521 36.9037 13.3697C35.3214 11.7874 33.1753 10.8984 30.9375 10.8984C28.6997 10.8984 26.5536 11.7874 24.9713 13.3697C23.3889 14.9521 22.5 17.0982 22.5 19.3359C22.5 21.5737 23.3889 23.7198 24.9713 25.3022C26.5536 26.8845 28.6997 27.7734 30.9375 27.7734Z" fill="#00163A"/>
<path fill-rule="evenodd" clip-rule="evenodd" d="M15.084 44.6484C14.6671 43.7704 14.4591 42.8078 14.4765 41.8359C14.4765 38.025 16.389 34.1015 19.9215 31.3734C18.1583 30.8301 16.3214 30.5645 14.4765 30.5859C3.22651 30.5859 1.11714 38.4961 1.11714 41.3086C1.11714 44.1211 4.10542 44.4726 4.10542 44.4726L15.084 44.6484Z" fill="#00163A"/>
<path d="M12.6562 27.7734C14.5211 27.7734 16.3095 27.0326 17.6281 25.714C18.9467 24.3954 19.6875 22.607 19.6875 20.7422C19.6875 18.8774 18.9467 17.089 17.6281 15.7703C16.3095 14.4517 14.5211 13.7109 12.6562 13.7109C10.7914 13.7109 9.00302 14.4517 7.68441 15.7703C6.36579 17.089 5.625 18.8774 5.625 20.7422C5.625 22.607 6.36579 24.3954 7.68441 25.714C9.00302 27.0326 10.7914 27.7734 12.6562 27.7734Z" fill="#00163A"/>
<path fill-rule="evenodd" clip-rule="evenodd" d="M39.375 2.8125H5.625C4.0717 2.8125 2.8125 4.0717 2.8125 5.625V39.375C2.8125 40.9283 4.0717 42.1875 5.625 42.1875H39.375C40.9283 42.1875 42.1875 40.9283 42.1875 39.375V5.625C42.1875 4.0717 40.9283 2.8125 39.375 2.8125ZM5.625 0C2.5184 0 0 2.5184 0 5.625V39.375C0 42.4816 2.5184 45 5.625 45H39.375C42.4816 45 45 42.4816 45 39.375V5.625C45 2.5184 42.4816 0 39.375 0H5.625Z" fill="#00163A"/>
</g>
<defs>
<clipPath id="clip0_124_1002">
<rect width="45" height="45" fill="white"/>
</clipPath>
</defs>
</svg>
