<svg width="40" height="40" viewBox="0 0 40 40" fill="none" xmlns="http://www.w3.org/2000/svg">
<path d="M16.6669 26.6665C22.1897 26.6665 26.6669 22.1895 26.6669 16.6666C26.6669 16.331 26.6502 15.9993 26.6181 15.6722C29.5872 16.9468 31.6667 19.8971 31.6667 23.3331C31.6667 27.9356 27.9357 31.6665 23.3334 31.6665C19.8974 31.6665 16.9471 29.587 15.6724 26.6178C15.9995 26.65 16.3312 26.6665 16.6669 26.6665Z" fill="white"/>
<path d="M16.6668 25C21.2692 25 25.0002 21.269 25.0002 16.6666C25.0002 12.0643 21.2692 8.33331 16.6668 8.33331C12.0645 8.33331 8.3335 12.0643 8.3335 16.6666C8.3335 21.269 12.0645 25 16.6668 25Z" fill="white"/>
</svg>
