<svg width="40" height="40" viewBox="0 0 40 40" fill="none" xmlns="http://www.w3.org/2000/svg">
<path fill-rule="evenodd" clip-rule="evenodd" d="M12.5 12.5001V27.5H27.5V12.5001H12.5ZM20 23.3333C20.6182 23.3333 21.197 23.165 21.6933 22.8718L23.5773 24.756C23.9028 25.0813 24.4305 25.0813 24.756 24.756C25.0813 24.4305 25.0813 23.9028 24.756 23.5773L22.8718 21.6933C23.165 21.197 23.3333 20.6182 23.3333 20C23.3333 19.3818 23.165 18.803 22.8718 18.3067L24.756 16.4226C25.0813 16.0972 25.0813 15.5695 24.756 15.2441C24.4305 14.9186 23.9028 14.9186 23.5773 15.2441L21.6933 17.1282C21.197 16.835 20.6182 16.6667 20 16.6667C19.3818 16.6667 18.803 16.835 18.3067 17.1282L16.4226 15.2441C16.0971 14.9186 15.5695 14.9186 15.2441 15.2441C14.9186 15.5695 14.9186 16.0972 15.2441 16.4226L17.1282 18.3067C16.835 18.803 16.6667 19.3818 16.6667 20C16.6667 20.6182 16.835 21.197 17.1282 21.6933L15.2441 23.5773C14.9186 23.9028 14.9186 24.4305 15.2441 24.756C15.5695 25.0813 16.0971 25.0813 16.4226 24.756L18.3067 22.8718C18.803 23.165 19.3818 23.3333 20 23.3333Z" fill="white"/>
<path fill-rule="evenodd" clip-rule="evenodd" d="M8.3335 9.99998C8.3335 9.0795 9.0797 8.33331 10.0002 8.33331H30.0002C30.9207 8.33331 31.6668 9.07951 31.6668 9.99998V29.8911C31.6668 30.8116 30.9207 31.5578 30.0002 31.5578H10.0002C9.0797 31.5578 8.3335 30.8116 8.3335 29.8911V9.99998ZM10.8335 11.6667C10.8335 11.2065 11.2066 10.8334 11.6668 10.8334H28.3335C28.7937 10.8334 29.1668 11.2065 29.1668 11.6667V28.3333C29.1668 28.7936 28.7937 29.1666 28.3335 29.1666H11.6668C11.2066 29.1666 10.8335 28.7936 10.8335 28.3333V11.6667Z" fill="white"/>
<path d="M20.0002 21.6666C20.9206 21.6666 21.6668 20.9205 21.6668 20C21.6668 19.0795 20.9206 18.3333 20.0002 18.3333C19.0797 18.3333 18.3335 19.0795 18.3335 20C18.3335 20.9205 19.0797 21.6666 20.0002 21.6666Z" fill="white"/>
<path d="M11.6665 31.6667H14.9998V32.6297C14.9998 33.0184 14.6848 33.3334 14.2961 33.3334H12.3702C11.9816 33.3334 11.6665 33.0184 11.6665 32.6297V31.6667Z" fill="white"/>
<path d="M25 31.6667H28.3333V32.6297C28.3333 33.0184 28.0183 33.3334 27.6297 33.3334H25.7037C25.315 33.3334 25 33.0184 25 32.6297V31.6667Z" fill="white"/>
</svg>
